<?xml version="1.0" standalone="no"?>
<!DOCTYPE svg PUBLIC "-//W3C//DTD SVG 20010904//EN"
 "http://www.w3.org/TR/2001/REC-SVG-20010904/DTD/svg10.dtd">
<svg version="1.0" xmlns="http://www.w3.org/2000/svg"
 width="460.000000pt" height="460.000000pt" viewBox="0 0 460.000000 460.000000"
 preserveAspectRatio="xMidYMid meet">

<g transform="translate(0.000000,460.000000) scale(0.100000,-0.100000)"
fill="#000000" stroke="none">
<path d="M0 2300 l0 -2300 2300 0 2300 0 0 2300 0 2300 -2300 0 -2300 0 0
-2300z m2390 2095 c41 -25 98 -56 125 -71 28 -14 82 -45 120 -70 39 -24 90
-53 115 -65 25 -11 52 -26 60 -34 8 -7 62 -39 120 -71 58 -31 119 -67 135 -79
17 -12 53 -34 82 -48 28 -14 79 -44 114 -66 35 -23 68 -41 74 -41 11 0 39 -17
153 -92 24 -15 48 -28 53 -28 6 0 40 -19 77 -43 37 -24 107 -66 155 -93 48
-27 112 -62 141 -79 29 -16 72 -41 95 -54 l41 -25 0 -1015 0 -1016 -53 -33
c-29 -19 -71 -42 -93 -53 -21 -10 -61 -33 -88 -49 -27 -17 -78 -47 -115 -66
-36 -20 -73 -42 -81 -49 -8 -7 -51 -32 -95 -55 -44 -24 -102 -58 -130 -76 -27
-17 -66 -39 -85 -48 -19 -8 -66 -36 -105 -60 -38 -25 -75 -45 -80 -46 -6 0
-35 -16 -65 -36 -30 -20 -93 -57 -139 -82 -47 -25 -107 -61 -134 -79 -27 -18
-53 -33 -59 -33 -5 0 -52 -27 -105 -60 -52 -33 -100 -60 -106 -60 -9 0 -84
-46 -151 -92 -46 -32 -91 -26 -166 21 -36 23 -87 53 -115 67 -27 13 -81 45
-120 69 -38 24 -85 51 -104 60 -19 9 -58 31 -85 49 -28 18 -75 45 -104 59 -30
15 -77 43 -106 62 -28 19 -65 40 -81 47 -30 13 -86 47 -156 94 -19 13 -41 24
-48 24 -6 0 -42 20 -79 44 -37 24 -96 59 -132 78 -36 19 -90 50 -122 69 -130
79 -293 172 -375 216 l-33 17 0 1016 0 1016 33 17 c51 26 259 146 375 216 32
19 80 46 107 61 28 15 73 41 100 58 28 18 70 42 94 53 24 12 73 40 110 64 36
23 91 55 121 70 30 15 69 38 85 50 17 12 71 43 120 70 50 26 104 58 121 71 17
13 37 24 44 24 12 0 56 27 161 96 19 13 40 24 46 24 5 0 28 12 49 27 59 40
177 103 194 103 8 0 49 -20 90 -45z"/>
<path d="M2180 4244 c-25 -15 -67 -39 -95 -54 -52 -28 -106 -59 -248 -144 -45
-27 -104 -61 -132 -76 -27 -14 -72 -41 -100 -58 -27 -17 -74 -43 -102 -56 -29
-14 -67 -36 -85 -49 -18 -13 -69 -43 -113 -67 -44 -23 -87 -48 -95 -55 -8 -7
-51 -32 -95 -56 -44 -23 -102 -57 -130 -75 -27 -17 -66 -39 -85 -48 -19 -9
-62 -34 -95 -56 -33 -22 -67 -42 -75 -45 -8 -4 -26 -12 -40 -18 l-25 -13 0
-954 0 -955 65 -34 c36 -18 88 -48 115 -66 28 -18 66 -40 85 -49 36 -17 75
-39 148 -88 24 -15 48 -28 53 -28 6 0 40 -20 77 -44 37 -24 92 -56 122 -71 30
-15 70 -38 87 -52 18 -13 54 -34 80 -46 51 -24 76 -39 159 -93 28 -19 56 -34
62 -34 6 0 50 -25 97 -56 48 -30 98 -60 113 -65 15 -6 52 -26 82 -46 52 -33
210 -123 216 -123 2 0 5 66 6 146 l3 147 65 38 c36 21 88 50 116 63 28 14 82
43 119 66 37 23 91 52 119 66 53 25 101 53 148 85 15 11 34 19 41 19 18 0 27
30 27 89 0 32 -7 51 -25 73 -20 24 -25 40 -25 87 0 77 26 103 108 108 74 5
101 -10 120 -66 12 -35 12 -51 2 -85 -6 -22 -18 -48 -26 -56 -9 -11 -14 -50
-16 -120 l-3 -104 -85 -46 c-47 -25 -97 -53 -110 -62 -14 -9 -42 -24 -62 -33
-21 -8 -76 -38 -122 -65 -47 -28 -88 -50 -92 -50 -4 0 -42 -21 -85 -46 l-79
-47 0 -104 0 -104 78 42 c42 24 100 57 128 75 27 19 66 40 85 49 19 9 66 36
104 60 39 24 93 56 120 70 28 14 75 41 105 60 30 19 69 41 87 49 17 8 62 34
100 59 37 24 95 58 128 75 33 17 80 45 105 61 25 17 49 31 53 31 5 0 53 27
107 60 54 33 102 60 107 60 4 0 28 14 53 30 25 17 82 51 128 76 l82 46 0 949
0 950 -42 20 c-24 11 -72 38 -108 60 -36 23 -81 49 -100 58 -19 10 -72 41
-118 69 -46 29 -87 52 -91 52 -4 0 -36 18 -70 40 -34 22 -88 53 -119 69 -31
16 -88 50 -127 75 -38 25 -75 46 -82 46 -7 0 -32 13 -55 29 -100 66 -125 81
-134 81 -6 0 -37 17 -70 38 -32 22 -93 57 -135 80 -43 23 -101 58 -130 77 -30
19 -57 35 -61 35 -4 0 -33 16 -65 35 -32 19 -62 35 -66 35 -4 0 -7 -62 -6
-137 1 -121 -1 -138 -17 -150 -10 -7 -25 -13 -35 -13 -9 0 -34 -12 -55 -26
-37 -25 -152 -90 -354 -198 -52 -28 -111 -62 -131 -74 l-36 -22 -8 -220 -7
-220 31 -32 c26 -26 31 -40 31 -79 0 -42 -4 -50 -40 -83 -34 -30 -47 -36 -86
-36 -40 0 -51 5 -80 36 -29 30 -34 43 -34 83 0 27 8 63 20 86 15 30 20 59 20
125 0 171 13 430 22 430 5 0 35 16 66 37 31 20 95 56 142 80 128 67 206 110
307 169 50 30 96 54 102 54 7 0 11 34 11 95 0 52 -1 95 -2 95 -2 0 -23 -12
-48 -26z m430 -1477 c0 -622 -6 -675 -97 -804 -43 -61 -131 -133 -198 -162
-39 -17 -226 -26 -339 -16 l-88 7 7 111 c9 146 13 150 135 141 101 -8 144 3
184 45 52 54 56 96 56 659 l0 512 170 0 170 0 0 -493z"/>
</g>
</svg>
